<mxfile host="app.diagrams.net" modified="2022-10-21T15:35:27.363Z" agent="5.0 (Windows NT 10.0; Win64; x64) AppleWebKit/537.36 (KHTML, like Gecko) Chrome/106.0.0.0 Safari/537.36" etag="LBAGVvyB6-zqdKGFy83n" version="20.4.2" type="github">
  <diagram id="zMKhE3hw5MGU6ExpmKIy" name="Page-1">
    <mxGraphModel dx="3597" dy="2492" grid="1" gridSize="10" guides="1" tooltips="1" connect="1" arrows="1" fold="1" page="1" pageScale="1" pageWidth="827" pageHeight="1169" math="0" shadow="0">
      <root>
        <mxCell id="0" />
        <mxCell id="1" parent="0" />
        <mxCell id="MJsCYTUSZarIDF243NE3-106" value="&lt;b&gt;GameContext&lt;br&gt;&lt;br&gt;&lt;br&gt;&lt;br&gt;&lt;br&gt;&lt;br&gt;&lt;br&gt;&lt;br&gt;&lt;br&gt;&lt;br&gt;&lt;br&gt;&lt;br&gt;&lt;br&gt;&lt;br&gt;&lt;br&gt;&lt;br&gt;&lt;br&gt;&lt;br&gt;&lt;br&gt;&lt;br&gt;&lt;/b&gt;" style="rounded=0;whiteSpace=wrap;html=1;fontSize=24;fillColor=#fff2cc;strokeColor=#d6b656;" parent="1" vertex="1">
          <mxGeometry x="-390" y="330" width="720" height="580" as="geometry" />
        </mxCell>
        <mxCell id="MJsCYTUSZarIDF243NE3-105" value="&lt;b&gt;UserContext&lt;br&gt;&lt;br&gt;&lt;br&gt;&lt;br&gt;&lt;br&gt;&lt;br&gt;&lt;br&gt;&lt;br&gt;&lt;/b&gt;" style="rounded=0;whiteSpace=wrap;html=1;fontSize=24;fillColor=#fff2cc;strokeColor=#d6b656;align=center;" parent="1" vertex="1">
          <mxGeometry x="-390" y="-120" width="720" height="340" as="geometry" />
        </mxCell>
        <mxCell id="MJsCYTUSZarIDF243NE3-99" value="" style="rounded=0;whiteSpace=wrap;html=1;fontSize=24;fillColor=#fff2cc;strokeColor=#d6b656;" parent="1" vertex="1">
          <mxGeometry x="680" y="370" width="515" height="250" as="geometry" />
        </mxCell>
        <mxCell id="MJsCYTUSZarIDF243NE3-95" value="&lt;b&gt;SequenceContext&lt;br&gt;&lt;br&gt;&lt;br&gt;&lt;br&gt;&lt;br&gt;&lt;br&gt;&lt;br&gt;&lt;br&gt;&lt;/b&gt;" style="rounded=0;whiteSpace=wrap;html=1;fontSize=24;fillColor=#fff2cc;strokeColor=#d6b656;" parent="1" vertex="1">
          <mxGeometry x="670" y="-120" width="530" height="355" as="geometry" />
        </mxCell>
        <mxCell id="MJsCYTUSZarIDF243NE3-8" value="User" style="swimlane;fontStyle=0;childLayout=stackLayout;horizontal=1;startSize=30;horizontalStack=0;resizeParent=1;resizeParentMax=0;resizeLast=0;collapsible=1;marginBottom=0;fontSize=24;" parent="1" vertex="1">
          <mxGeometry x="-90" y="30" width="140" height="120" as="geometry" />
        </mxCell>
        <mxCell id="MJsCYTUSZarIDF243NE3-9" value="Id " style="text;strokeColor=none;fillColor=none;align=left;verticalAlign=middle;spacingLeft=4;spacingRight=4;overflow=hidden;points=[[0,0.5],[1,0.5]];portConstraint=eastwest;rotatable=0;fontSize=24;" parent="MJsCYTUSZarIDF243NE3-8" vertex="1">
          <mxGeometry y="30" width="140" height="30" as="geometry" />
        </mxCell>
        <mxCell id="MJsCYTUSZarIDF243NE3-10" value="username" style="text;strokeColor=none;fillColor=none;align=left;verticalAlign=middle;spacingLeft=4;spacingRight=4;overflow=hidden;points=[[0,0.5],[1,0.5]];portConstraint=eastwest;rotatable=0;fontSize=24;" parent="MJsCYTUSZarIDF243NE3-8" vertex="1">
          <mxGeometry y="60" width="140" height="30" as="geometry" />
        </mxCell>
        <mxCell id="MJsCYTUSZarIDF243NE3-11" value="password" style="text;strokeColor=none;fillColor=none;align=left;verticalAlign=middle;spacingLeft=4;spacingRight=4;overflow=hidden;points=[[0,0.5],[1,0.5]];portConstraint=eastwest;rotatable=0;fontSize=24;" parent="MJsCYTUSZarIDF243NE3-8" vertex="1">
          <mxGeometry y="90" width="140" height="30" as="geometry" />
        </mxCell>
        <mxCell id="MJsCYTUSZarIDF243NE3-18" value="Game" style="swimlane;fontStyle=0;childLayout=stackLayout;horizontal=1;startSize=30;horizontalStack=0;resizeParent=1;resizeParentMax=0;resizeLast=0;collapsible=1;marginBottom=0;fontSize=24;" parent="1" vertex="1">
          <mxGeometry x="84" y="420" width="190" height="240" as="geometry" />
        </mxCell>
        <mxCell id="MJsCYTUSZarIDF243NE3-19" value="Id" style="text;strokeColor=none;fillColor=none;align=left;verticalAlign=middle;spacingLeft=4;spacingRight=4;overflow=hidden;points=[[0,0.5],[1,0.5]];portConstraint=eastwest;rotatable=0;fontSize=24;" parent="MJsCYTUSZarIDF243NE3-18" vertex="1">
          <mxGeometry y="30" width="190" height="30" as="geometry" />
        </mxCell>
        <mxCell id="MJsCYTUSZarIDF243NE3-109" value="StartDate" style="text;strokeColor=none;fillColor=none;align=left;verticalAlign=middle;spacingLeft=4;spacingRight=4;overflow=hidden;points=[[0,0.5],[1,0.5]];portConstraint=eastwest;rotatable=0;fontSize=24;" parent="MJsCYTUSZarIDF243NE3-18" vertex="1">
          <mxGeometry y="60" width="190" height="30" as="geometry" />
        </mxCell>
        <mxCell id="MJsCYTUSZarIDF243NE3-20" value="players" style="text;strokeColor=none;fillColor=none;align=left;verticalAlign=middle;spacingLeft=4;spacingRight=4;overflow=hidden;points=[[0,0.5],[1,0.5]];portConstraint=eastwest;rotatable=0;fontSize=24;" parent="MJsCYTUSZarIDF243NE3-18" vertex="1">
          <mxGeometry y="90" width="190" height="30" as="geometry" />
        </mxCell>
        <mxCell id="MJsCYTUSZarIDF243NE3-21" value="ImageId" style="text;strokeColor=none;fillColor=none;align=left;verticalAlign=middle;spacingLeft=4;spacingRight=4;overflow=hidden;points=[[0,0.5],[1,0.5]];portConstraint=eastwest;rotatable=0;fontSize=24;" parent="MJsCYTUSZarIDF243NE3-18" vertex="1">
          <mxGeometry y="120" width="190" height="30" as="geometry" />
        </mxCell>
        <mxCell id="MJsCYTUSZarIDF243NE3-50" value="score" style="text;strokeColor=none;fillColor=none;align=left;verticalAlign=middle;spacingLeft=4;spacingRight=4;overflow=hidden;points=[[0,0.5],[1,0.5]];portConstraint=eastwest;rotatable=0;fontSize=24;" parent="MJsCYTUSZarIDF243NE3-18" vertex="1">
          <mxGeometry y="150" width="190" height="30" as="geometry" />
        </mxCell>
        <mxCell id="MJsCYTUSZarIDF243NE3-59" value="segmentsPlaced" style="text;strokeColor=none;fillColor=none;align=left;verticalAlign=middle;spacingLeft=4;spacingRight=4;overflow=hidden;points=[[0,0.5],[1,0.5]];portConstraint=eastwest;rotatable=0;fontSize=24;" parent="MJsCYTUSZarIDF243NE3-18" vertex="1">
          <mxGeometry y="180" width="190" height="30" as="geometry" />
        </mxCell>
        <mxCell id="MJsCYTUSZarIDF243NE3-55" value="segments" style="text;strokeColor=none;fillColor=none;align=left;verticalAlign=middle;spacingLeft=4;spacingRight=4;overflow=hidden;points=[[0,0.5],[1,0.5]];portConstraint=eastwest;rotatable=0;fontSize=24;" parent="MJsCYTUSZarIDF243NE3-18" vertex="1">
          <mxGeometry y="210" width="190" height="30" as="geometry" />
        </mxCell>
        <mxCell id="MJsCYTUSZarIDF243NE3-90" style="rounded=0;orthogonalLoop=1;jettySize=auto;html=1;fontSize=24;startArrow=block;startFill=1;strokeWidth=1;endArrow=none;endFill=0;" parent="1" source="MJsCYTUSZarIDF243NE3-31" target="MJsCYTUSZarIDF243NE3-18" edge="1">
          <mxGeometry relative="1" as="geometry">
            <mxPoint x="80" y="380" as="targetPoint" />
          </mxGeometry>
        </mxCell>
        <mxCell id="MJsCYTUSZarIDF243NE3-31" value="Player" style="swimlane;fontStyle=0;childLayout=stackLayout;horizontal=1;startSize=30;horizontalStack=0;resizeParent=1;resizeParentMax=0;resizeLast=0;collapsible=1;marginBottom=0;fontSize=24;" parent="1" vertex="1">
          <mxGeometry x="-300" y="435" width="140" height="120" as="geometry" />
        </mxCell>
        <mxCell id="MJsCYTUSZarIDF243NE3-107" value="Id " style="text;strokeColor=none;fillColor=none;align=left;verticalAlign=middle;spacingLeft=4;spacingRight=4;overflow=hidden;points=[[0,0.5],[1,0.5]];portConstraint=eastwest;rotatable=0;fontSize=24;" parent="MJsCYTUSZarIDF243NE3-31" vertex="1">
          <mxGeometry y="30" width="140" height="30" as="geometry" />
        </mxCell>
        <mxCell id="MJsCYTUSZarIDF243NE3-32" value="UserId" style="text;strokeColor=none;fillColor=none;align=left;verticalAlign=middle;spacingLeft=4;spacingRight=4;overflow=hidden;points=[[0,0.5],[1,0.5]];portConstraint=eastwest;rotatable=0;fontSize=24;" parent="MJsCYTUSZarIDF243NE3-31" vertex="1">
          <mxGeometry y="60" width="140" height="30" as="geometry" />
        </mxCell>
        <mxCell id="MJsCYTUSZarIDF243NE3-33" value="role" style="text;strokeColor=none;fillColor=none;align=left;verticalAlign=middle;spacingLeft=4;spacingRight=4;overflow=hidden;points=[[0,0.5],[1,0.5]];portConstraint=eastwest;rotatable=0;fontSize=24;" parent="MJsCYTUSZarIDF243NE3-31" vertex="1">
          <mxGeometry y="90" width="140" height="30" as="geometry" />
        </mxCell>
        <mxCell id="MJsCYTUSZarIDF243NE3-37" value="Image" style="swimlane;fontStyle=0;childLayout=stackLayout;horizontal=1;startSize=30;horizontalStack=0;resizeParent=1;resizeParentMax=0;resizeLast=0;collapsible=1;marginBottom=0;fontSize=24;" parent="1" vertex="1">
          <mxGeometry x="965" y="400" width="140" height="150" as="geometry" />
        </mxCell>
        <mxCell id="MJsCYTUSZarIDF243NE3-38" value="Id" style="text;strokeColor=none;fillColor=none;align=left;verticalAlign=middle;spacingLeft=4;spacingRight=4;overflow=hidden;points=[[0,0.5],[1,0.5]];portConstraint=eastwest;rotatable=0;fontSize=24;" parent="MJsCYTUSZarIDF243NE3-37" vertex="1">
          <mxGeometry y="30" width="140" height="30" as="geometry" />
        </mxCell>
        <mxCell id="MJsCYTUSZarIDF243NE3-40" value="Label" style="text;strokeColor=none;fillColor=none;align=left;verticalAlign=middle;spacingLeft=4;spacingRight=4;overflow=hidden;points=[[0,0.5],[1,0.5]];portConstraint=eastwest;rotatable=0;fontSize=24;" parent="MJsCYTUSZarIDF243NE3-37" vertex="1">
          <mxGeometry y="60" width="140" height="30" as="geometry" />
        </mxCell>
        <mxCell id="MJsCYTUSZarIDF243NE3-41" value="folderName" style="text;strokeColor=none;fillColor=none;align=left;verticalAlign=middle;spacingLeft=4;spacingRight=4;overflow=hidden;points=[[0,0.5],[1,0.5]];portConstraint=eastwest;rotatable=0;fontSize=24;" parent="MJsCYTUSZarIDF243NE3-37" vertex="1">
          <mxGeometry y="90" width="140" height="30" as="geometry" />
        </mxCell>
        <mxCell id="MJsCYTUSZarIDF243NE3-58" value="#segments" style="text;strokeColor=none;fillColor=none;align=left;verticalAlign=middle;spacingLeft=4;spacingRight=4;overflow=hidden;points=[[0,0.5],[1,0.5]];portConstraint=eastwest;rotatable=0;fontSize=24;" parent="MJsCYTUSZarIDF243NE3-37" vertex="1">
          <mxGeometry y="120" width="140" height="30" as="geometry" />
        </mxCell>
        <mxCell id="MJsCYTUSZarIDF243NE3-91" style="rounded=0;orthogonalLoop=1;jettySize=auto;html=1;fontSize=24;startArrow=block;startFill=1;endArrow=none;endFill=0;" parent="1" source="MJsCYTUSZarIDF243NE3-43" target="MJsCYTUSZarIDF243NE3-55" edge="1">
          <mxGeometry relative="1" as="geometry" />
        </mxCell>
        <mxCell id="MJsCYTUSZarIDF243NE3-43" value="Segment" style="swimlane;fontStyle=0;childLayout=stackLayout;horizontal=1;startSize=30;horizontalStack=0;resizeParent=1;resizeParentMax=0;resizeLast=0;collapsible=1;marginBottom=0;fontSize=24;" parent="1" vertex="1">
          <mxGeometry x="-310" y="605" width="160" height="120" as="geometry" />
        </mxCell>
        <mxCell id="MJsCYTUSZarIDF243NE3-44" value="Id" style="text;strokeColor=none;fillColor=none;align=left;verticalAlign=middle;spacingLeft=4;spacingRight=4;overflow=hidden;points=[[0,0.5],[1,0.5]];portConstraint=eastwest;rotatable=0;fontSize=24;" parent="MJsCYTUSZarIDF243NE3-43" vertex="1">
          <mxGeometry y="30" width="160" height="30" as="geometry" />
        </mxCell>
        <mxCell id="MJsCYTUSZarIDF243NE3-46" value="Status" style="text;strokeColor=none;fillColor=none;align=left;verticalAlign=middle;spacingLeft=4;spacingRight=4;overflow=hidden;points=[[0,0.5],[1,0.5]];portConstraint=eastwest;rotatable=0;fontSize=24;" parent="MJsCYTUSZarIDF243NE3-43" vertex="1">
          <mxGeometry y="60" width="160" height="30" as="geometry" />
        </mxCell>
        <mxCell id="MJsCYTUSZarIDF243NE3-66" value="fileid" style="text;strokeColor=none;fillColor=none;align=left;verticalAlign=middle;spacingLeft=4;spacingRight=4;overflow=hidden;points=[[0,0.5],[1,0.5]];portConstraint=eastwest;rotatable=0;fontSize=24;" parent="MJsCYTUSZarIDF243NE3-43" vertex="1">
          <mxGeometry y="90" width="160" height="30" as="geometry" />
        </mxCell>
        <mxCell id="MJsCYTUSZarIDF243NE3-68" value="RecordedSequence" style="swimlane;fontStyle=0;childLayout=stackLayout;horizontal=1;startSize=30;horizontalStack=0;resizeParent=1;resizeParentMax=0;resizeLast=0;collapsible=1;marginBottom=0;fontSize=24;" parent="1" vertex="1">
          <mxGeometry x="960" y="40" width="210" height="120" as="geometry" />
        </mxCell>
        <mxCell id="MJsCYTUSZarIDF243NE3-69" value="Id " style="text;strokeColor=none;fillColor=none;align=left;verticalAlign=middle;spacingLeft=4;spacingRight=4;overflow=hidden;points=[[0,0.5],[1,0.5]];portConstraint=eastwest;rotatable=0;fontSize=24;" parent="MJsCYTUSZarIDF243NE3-68" vertex="1">
          <mxGeometry y="30" width="210" height="30" as="geometry" />
        </mxCell>
        <mxCell id="MJsCYTUSZarIDF243NE3-70" value="Image" style="text;strokeColor=none;fillColor=none;align=left;verticalAlign=middle;spacingLeft=4;spacingRight=4;overflow=hidden;points=[[0,0.5],[1,0.5]];portConstraint=eastwest;rotatable=0;fontSize=24;" parent="MJsCYTUSZarIDF243NE3-68" vertex="1">
          <mxGeometry y="60" width="210" height="30" as="geometry" />
        </mxCell>
        <mxCell id="MJsCYTUSZarIDF243NE3-71" value="sequence" style="text;strokeColor=none;fillColor=none;align=left;verticalAlign=middle;spacingLeft=4;spacingRight=4;overflow=hidden;points=[[0,0.5],[1,0.5]];portConstraint=eastwest;rotatable=0;fontSize=24;" parent="MJsCYTUSZarIDF243NE3-68" vertex="1">
          <mxGeometry y="90" width="210" height="30" as="geometry" />
        </mxCell>
        <mxCell id="MJsCYTUSZarIDF243NE3-114" value="" style="edgeStyle=none;rounded=0;orthogonalLoop=1;jettySize=auto;html=1;fontSize=24;startArrow=none;startFill=0;" parent="1" source="MJsCYTUSZarIDF243NE3-82" target="MJsCYTUSZarIDF243NE3-55" edge="1">
          <mxGeometry relative="1" as="geometry" />
        </mxCell>
        <mxCell id="MJsCYTUSZarIDF243NE3-82" value="gameImage" style="swimlane;fontStyle=0;childLayout=stackLayout;horizontal=1;startSize=30;horizontalStack=0;resizeParent=1;resizeParentMax=0;resizeLast=0;collapsible=1;marginBottom=0;fontSize=24;" parent="1" vertex="1">
          <mxGeometry x="99" y="750" width="160" height="150" as="geometry" />
        </mxCell>
        <mxCell id="MJsCYTUSZarIDF243NE3-83" value="Id" style="text;strokeColor=none;fillColor=none;align=left;verticalAlign=middle;spacingLeft=4;spacingRight=4;overflow=hidden;points=[[0,0.5],[1,0.5]];portConstraint=eastwest;rotatable=0;fontSize=24;" parent="MJsCYTUSZarIDF243NE3-82" vertex="1">
          <mxGeometry y="30" width="160" height="30" as="geometry" />
        </mxCell>
        <mxCell id="MJsCYTUSZarIDF243NE3-84" value="Label" style="text;strokeColor=none;fillColor=none;align=left;verticalAlign=middle;spacingLeft=4;spacingRight=4;overflow=hidden;points=[[0,0.5],[1,0.5]];portConstraint=eastwest;rotatable=0;fontSize=24;" parent="MJsCYTUSZarIDF243NE3-82" vertex="1">
          <mxGeometry y="60" width="160" height="30" as="geometry" />
        </mxCell>
        <mxCell id="MJsCYTUSZarIDF243NE3-85" value="folderName" style="text;strokeColor=none;fillColor=none;align=left;verticalAlign=middle;spacingLeft=4;spacingRight=4;overflow=hidden;points=[[0,0.5],[1,0.5]];portConstraint=eastwest;rotatable=0;fontSize=24;" parent="MJsCYTUSZarIDF243NE3-82" vertex="1">
          <mxGeometry y="90" width="160" height="30" as="geometry" />
        </mxCell>
        <mxCell id="MJsCYTUSZarIDF243NE3-89" value="#segments" style="text;strokeColor=none;fillColor=none;align=left;verticalAlign=middle;spacingLeft=4;spacingRight=4;overflow=hidden;points=[[0,0.5],[1,0.5]];portConstraint=eastwest;rotatable=0;fontSize=24;" parent="MJsCYTUSZarIDF243NE3-82" vertex="1">
          <mxGeometry y="120" width="160" height="30" as="geometry" />
        </mxCell>
        <mxCell id="MJsCYTUSZarIDF243NE3-93" value="" style="shape=flexArrow;endArrow=classic;html=1;rounded=0;fontSize=24;exitX=1;exitY=0;exitDx=0;exitDy=0;entryX=0.25;entryY=1;entryDx=0;entryDy=0;fillColor=#000000;" parent="1" source="MJsCYTUSZarIDF243NE3-18" target="MJsCYTUSZarIDF243NE3-98" edge="1">
          <mxGeometry width="50" height="50" relative="1" as="geometry">
            <mxPoint x="380" y="360" as="sourcePoint" />
            <mxPoint x="430" y="160" as="targetPoint" />
          </mxGeometry>
        </mxCell>
        <mxCell id="MJsCYTUSZarIDF243NE3-94" value="PlaceRecordedSequence" style="edgeLabel;html=1;align=center;verticalAlign=middle;resizable=0;points=[];fontSize=24;labelBorderColor=none;labelBackgroundColor=#EDEDED;" parent="MJsCYTUSZarIDF243NE3-93" vertex="1" connectable="0">
          <mxGeometry x="0.1182" y="3" relative="1" as="geometry">
            <mxPoint x="-10" y="24" as="offset" />
          </mxGeometry>
        </mxCell>
        <mxCell id="MJsCYTUSZarIDF243NE3-98" value="ISequenceService" style="rounded=0;whiteSpace=wrap;html=1;fontSize=24;" parent="1" vertex="1">
          <mxGeometry x="725" y="50" width="220" height="60" as="geometry" />
        </mxCell>
        <mxCell id="MJsCYTUSZarIDF243NE3-100" value="IImageService" style="rounded=0;whiteSpace=wrap;html=1;fontSize=24;" parent="1" vertex="1">
          <mxGeometry x="725" y="430" width="220" height="60" as="geometry" />
        </mxCell>
        <mxCell id="MJsCYTUSZarIDF243NE3-103" value="" style="shape=flexArrow;endArrow=classic;html=1;rounded=0;fontSize=24;exitX=1;exitY=0.5;exitDx=0;exitDy=0;entryX=0;entryY=0.75;entryDx=0;entryDy=0;fillColor=#080808;" parent="1" source="MJsCYTUSZarIDF243NE3-21" target="MJsCYTUSZarIDF243NE3-100" edge="1">
          <mxGeometry width="50" height="50" relative="1" as="geometry">
            <mxPoint x="560" y="460" as="sourcePoint" />
            <mxPoint x="701" y="260" as="targetPoint" />
          </mxGeometry>
        </mxCell>
        <mxCell id="MJsCYTUSZarIDF243NE3-104" value="GetRandomImage" style="edgeLabel;html=1;align=center;verticalAlign=middle;resizable=0;points=[];fontSize=24;labelBackgroundColor=#EDEDED;" parent="MJsCYTUSZarIDF243NE3-103" vertex="1" connectable="0">
          <mxGeometry x="0.1182" y="3" relative="1" as="geometry">
            <mxPoint x="-18" y="7" as="offset" />
          </mxGeometry>
        </mxCell>
        <mxCell id="QM8mrl713vY6Wl-bWp9o-2" value="" style="endArrow=block;dashed=1;html=1;dashPattern=1 3;strokeWidth=2;rounded=0;entryX=1;entryY=0.5;entryDx=0;entryDy=0;edgeStyle=orthogonalEdgeStyle;curved=1;endFill=1;" parent="1" target="MJsCYTUSZarIDF243NE3-89" edge="1">
          <mxGeometry width="50" height="50" relative="1" as="geometry">
            <mxPoint x="1031" y="550" as="sourcePoint" />
            <mxPoint x="1241" y="820" as="targetPoint" />
          </mxGeometry>
        </mxCell>
        <mxCell id="QM8mrl713vY6Wl-bWp9o-6" value="&lt;span style=&quot;font-size: 24px;&quot;&gt;ImageLabelChangedEvent &amp;amp;&lt;br&gt;&lt;/span&gt;&lt;span style=&quot;color: rgba(0, 0, 0, 0); font-family: monospace; font-size: 0px; text-align: start; background-color: rgb(248, 249, 250);&quot;&gt;%3CmxGraphModel%3E%3Croot%3E%3CmxCell%20id%3D%220%22%2F%3E%3CmxCell%20id%3D%221%22%20parent%3D%220%22%2F%3E%3CmxCell%20id%3D%222%22%20value%3D%22%26lt%3Bspan%20style%3D%26quot%3Bfont-size%3A%2024px%3B%26quot%3B%26gt%3BImageFolderNameChangedEvent%26lt%3B%2Fspan%26gt%3B%22%20style%3D%22edgeLabel%3Bhtml%3D1%3Balign%3Dcenter%3BverticalAlign%3Dmiddle%3Bresizable%3D0%3Bpoints%3D%5B%5D%3B%22%20vertex%3D%221%22%20connectable%3D%220%22%20parent%3D%221%22%3E%3CmxGeometry%20x%3D%22573.8571428571427%22%20y%3D%22603%22%20as%3D%22geometry%22%2F%3E%3C%2FmxCell%3E%3C%2Froot%3E%3C%2FmxGraphModel%3E &amp;amp;&amp;nbsp;&lt;/span&gt;&lt;span style=&quot;font-size: 24px;&quot;&gt;ImageFolderNameChangedEvent&lt;/span&gt;&lt;span style=&quot;font-size: 24px;&quot;&gt;&lt;br&gt;&lt;/span&gt;" style="edgeLabel;html=1;align=center;verticalAlign=middle;resizable=0;points=[];" parent="QM8mrl713vY6Wl-bWp9o-2" vertex="1" connectable="0">
          <mxGeometry x="0.0535" y="-57" relative="1" as="geometry">
            <mxPoint as="offset" />
          </mxGeometry>
        </mxCell>
      </root>
    </mxGraphModel>
  </diagram>
</mxfile>
